<svg xmlns="http://www.w3.org/2000/svg" xmlns:xlink="http://www.w3.org/1999/xlink" version="1.1" width="199.719764pt" height="202.632491pt" viewBox="133.260453 72.331536 199.719764 202.632491" role="img" aria-labelledby="FAOA-2015-DIAGRAM-CH06-016-title FAOA-2015-DIAGRAM-CH06-016-desc">
<title id="FAOA-2015-DIAGRAM-CH06-016-title">Diagram FAOA-2015-DIAGRAM-CH06-016</title><desc id="FAOA-2015-DIAGRAM-CH06-016-desc">Kisi tiga kali tiga yang diturunkan dari barisan eksak pendek A ke B ke C. Baris-barisnya adalah A menuju A bintang-bintang menuju A garis-atas, B menuju B bintang-bintang menuju B garis-atas, serta C menuju C bintang-bintang menuju C garis-atas. Kolom pertama memakai S lalu T; kolom kedua memakai S bintang-bintang lalu T bintang-bintang; kolom ketiga memakai S garis-atas lalu T garis-atas. Semua baris dan kolom eksak, dan keempat persegi kecil komutatif.</desc><defs>
<path id="g0-3" d="M3.186052-.938481C3.186052-1.06401 3.108344-1.093898 3.048568-1.123786L2.12802-1.488418L3.01868-1.847073C3.114321-1.882939 3.186052-1.924782 3.186052-2.044334C3.186052-2.175841 3.072478-2.247572 2.99477-2.247572C2.952927-2.247572 2.940971-2.241594 2.86924-2.193773L2.008468-1.655791L2.092154-2.52254L2.10411-2.600249C2.10411-2.701868 2.014446-2.779577 1.906849-2.779577C1.80523-2.779577 1.709589-2.701868 1.709589-2.600249C1.709589-2.582316 1.721544-2.516563 1.721544-2.492653L1.80523-1.655791L.944458-2.193773C.872727-2.241594 .860772-2.247572 .818929-2.247572C.74122-2.247572 .627646-2.175841 .627646-2.044334C.627646-1.918804 .699377-1.888917 .789041-1.853051L1.685679-1.494396L.795019-1.135741C.699377-1.099875 .627646-1.058032 .627646-.938481C.627646-.806974 .74122-.735243 .818929-.735243C.860772-.735243 .872727-.74122 .944458-.789041L1.80523-1.327024L1.769365-.962391L1.709589-.382565C1.709589-.280946 1.80523-.203238 1.906849-.203238C2.014446-.203238 2.10411-.280946 2.10411-.382565C2.10411-.382565 2.050311-.926526 2.044334-.956413L2.008468-1.327024L2.779577-.842839C2.84533-.800996 2.946949-.735243 2.99477-.735243C3.072478-.735243 3.186052-.806974 3.186052-.938481Z"/>
<path id="g1-3" d="M3.674222-1.251308C3.674222-1.39477 3.57858-1.44259 3.498879-1.474471L2.343213-1.984558L3.490909-2.494645C3.57061-2.526526 3.674222-2.574346 3.674222-2.725778C3.674222-2.773599 3.658281-2.972852 3.379328-2.972852L2.223661-2.183811L2.343213-3.387298C2.359153-3.52279 2.335243-3.706102 2.11208-3.706102C1.968618-3.706102 1.857036-3.58655 1.880946-3.474969V-3.395268L2.000498-2.183811L.972354-2.901121C.868742-2.972852 .820922-2.972852 .789041-2.972852C.645579-2.972852 .549938-2.84533 .549938-2.725778C.549938-2.574346 .653549-2.526526 .73325-2.494645L1.880946-1.992528L.73325-1.482441C.653549-1.45056 .549938-1.40274 .549938-1.251308C.549938-1.203487 .565878-1.004234 .844832-1.004234L2.000498-1.793275L1.880946-.549938V-.510087C1.849066-.454296 1.920797-.270984 2.11208-.270984C2.327273-.270984 2.359153-.446326 2.343213-.581818L2.231631-1.785305L3.148194-1.147696C3.355417-1.004234 3.371357-1.004234 3.435118-1.004234C3.57858-1.004234 3.674222-1.131756 3.674222-1.251308Z"/>
<path id="g2-83" d="M4.638605-1.833126C4.638605-2.199751 4.519054-2.486675 4.303861-2.709838C4.064757-2.972852 3.801743-3.036613 3.427148-3.132254L2.701868-3.307597C2.462765-3.363387 2.016438-3.52279 2.016438-4.080697C2.016438-4.702366 2.685928-5.371856 3.498879-5.371856C4.216189-5.371856 4.710336-4.99726 4.710336-4.136488C4.710336-3.945205 4.678456-3.777833 4.678456-3.745953C4.678456-3.650311 4.750187-3.634371 4.805978-3.634371C4.901619-3.634371 4.909589-3.666252 4.941469-3.793773L5.347945-5.395766C5.355915-5.427646 5.371856-5.475467 5.371856-5.515318C5.371856-5.571108 5.324035-5.610959 5.268244-5.610959S5.196513-5.595019 5.108842-5.499377C5.021171-5.395766 4.813948-5.140722 4.726276-5.045081C4.415442-5.499377 3.913325-5.610959 3.506849-5.610959C2.399004-5.610959 1.45056-4.678456 1.45056-3.769863C1.45056-3.307597 1.697634-3.036613 1.737484-2.980822C2.000498-2.701868 2.231631-2.638107 2.805479-2.502615C3.084433-2.430884 3.100374-2.430884 3.331507-2.375093S4.072727-2.191781 4.072727-1.530262C4.072727-.836862 3.387298-.095641 2.550436-.095641C2.032379-.095641 1.083935-.255044 1.083935-1.243337C1.083935-1.267248 1.083935-1.43462 1.131756-1.625903L1.139726-1.705604C1.139726-1.801245 1.052055-1.809215 1.020174-1.809215C.916563-1.809215 .908593-1.777335 .868742-1.594022L.541968-.294894C.510087-.175342 .454296 .039851 .454296 .063761C.454296 .127522 .502117 .167372 .557908 .167372S.621669 .159402 .70934 .055791C.765131-.00797 .757161-.00797 1.091905-.390535C1.275218-.151432 1.729514 .167372 2.534496 .167372C3.690162 .167372 4.638605-.876712 4.638605-1.833126Z"/>
<path id="g2-84" d="M5.72254-3.777833L5.937733-5.276214C5.937733-5.387796 5.842092-5.387796 5.69863-5.387796H1.004234C.804981-5.387796 .789041-5.387796 .73325-5.220423L.247073-3.841594C.231133-3.801743 .207223-3.737983 .207223-3.690162C.207223-3.626401 .263014-3.57858 .326775-3.57858C.414446-3.57858 .430386-3.618431 .478207-3.753923C.932503-5.029141 1.163636-5.124782 2.375093-5.124782H2.685928C2.925031-5.124782 2.933001-5.116812 2.933001-5.053051C2.933001-5.029141 2.901121-4.869738 2.893151-4.837858L1.841096-.653549C1.769365-.350685 1.745455-.263014 .916563-.263014C.661519-.263014 .581818-.263014 .581818-.111582C.581818-.111582 .581818 0 .71731 0L1.697634-.02391H2.375093L3.379328 0C3.443088 0 3.56264 0 3.56264-.151432C3.56264-.263014 3.474969-.263014 3.259776-.263014C3.068493-.263014 3.004732-.263014 2.797509-.278954C2.542466-.302864 2.510585-.334745 2.510585-.438356C2.510585-.470237 2.518555-.502117 2.542466-.581818L3.602491-4.821918C3.674222-5.108842 3.682192-5.124782 4.008966-5.124782H4.614695C5.443587-5.124782 5.539228-4.861768 5.539228-4.463263C5.539228-4.26401 5.491407-3.921295 5.483437-3.881445C5.467497-3.793773 5.459527-3.706102 5.459527-3.706102C5.459527-3.602491 5.531258-3.57858 5.579078-3.57858C5.66675-3.57858 5.69863-3.626401 5.72254-3.777833Z"/>
<path id="g3-65" d="M7.865452-.218182C7.865452-.338182 7.756361-.338182 7.614543-.338182C6.93818-.338182 6.93818-.414545 6.905453-.730909L6.239998-7.549089C6.21818-7.767271 6.21818-7.810907 6.032726-7.810907C5.85818-7.810907 5.814544-7.734543 5.749089-7.625452L1.952727-1.254545C1.516363-.523636 1.090909-.370909 .610909-.338182C.48-.327273 .381818-.327273 .381818-.12C.381818-.054545 .436364 0 .523636 0C.818182 0 1.156363-.032727 1.461818-.032727C1.821818-.032727 2.203636 0 2.552727 0C2.618181 0 2.759999 0 2.759999-.207273C2.759999-.327273 2.661817-.338182 2.585454-.338182C2.334545-.36 2.072727-.447273 2.072727-.72C2.072727-.850909 2.138181-.970909 2.225454-1.123636C2.301818-1.254545 2.312727-1.254545 3.054545-2.519999H5.792726C5.814544-2.290908 5.967271-.807273 5.967271-.698182C5.967271-.370909 5.399998-.338182 5.181817-.338182C5.02909-.338182 4.919999-.338182 4.919999-.12C4.919999 0 5.072726 0 5.072726 0C5.519998 0 5.989089-.032727 6.436362-.032727C6.709089-.032727 7.396362 0 7.669089 0C7.734543 0 7.865452 0 7.865452-.218182ZM5.759998-2.858181H3.261817L5.410908-6.45818L5.759998-2.858181Z"/>
<path id="g3-66" d="M7.65818-2.356363C7.65818-3.141817 7.025453-3.774544 5.967271-3.894544C7.101816-4.101817 8.24727-4.90909 8.24727-5.945453C8.24727-6.752725 7.527271-7.450907 6.21818-7.450907H2.552727C2.345454-7.450907 2.236363-7.450907 2.236363-7.232725C2.236363-7.112725 2.334545-7.112725 2.541817-7.112725C2.541817-7.112725 2.770908-7.112725 2.956363-7.090907C3.152726-7.069089 3.250908-7.05818 3.250908-6.916362C3.250908-6.872725 3.239999-6.839998 3.207272-6.709089L1.745454-.850909C1.636363-.425454 1.614545-.338182 .752727-.338182C.567273-.338182 .458182-.338182 .458182-.12C.458182 0 .556363 0 .752727 0H4.647271C6.370907 0 7.65818-1.287272 7.65818-2.356363ZM7.254543-5.989089C7.254543-5.02909 6.316362-3.992726 4.985453-3.992726H3.392726L4.06909-6.69818C4.167272-7.079998 4.18909-7.112725 4.658181-7.112725H6.065453C7.025453-7.112725 7.254543-6.469089 7.254543-5.989089ZM6.643635-2.476363C6.643635-1.396363 5.672726-.338182 4.385453-.338182H2.901817C2.74909-.338182 2.727272-.338182 2.661817-.349091C2.552727-.36 2.519999-.370909 2.519999-.458182C2.519999-.490909 2.519999-.512727 2.574545-.709091L3.327272-3.752726H5.389089C6.436362-3.752726 6.643635-2.945454 6.643635-2.476363Z"/>
<path id="g3-67" d="M7.05818-2.618181C7.05818-2.727272 6.927271-2.727272 6.927271-2.727272C6.861816-2.727272 6.807271-2.705454 6.785453-2.618181C6.687271-2.301818 6.436362-1.527272 5.683635-.894545C4.930908-.283636 4.243635-.098182 3.676363-.098182C2.694545-.098182 1.538181-.665454 1.538181-2.367272C1.538181-2.98909 1.767272-4.756362 2.858181-6.032726C3.523635-6.807271 4.54909-7.352725 5.519998-7.352725C6.632725-7.352725 7.276362-6.512725 7.276362-5.247271C7.276362-4.810908 7.243634-4.799999 7.243634-4.690908S7.363634-4.581817 7.407271-4.581817C7.549089-4.581817 7.549089-4.603635 7.603634-4.799999L8.290907-7.581816C8.290907-7.614543 8.269089-7.690907 8.170907-7.690907C8.13818-7.690907 8.12727-7.679998 8.00727-7.559998L7.243634-6.719998C7.145453-6.872725 6.643635-7.690907 5.432726-7.690907C2.999999-7.690907 .545454-5.279999 .545454-2.74909C.545454-.949091 1.832727 .24 3.501817 .24C4.450908 .24 5.279999-.196364 5.85818-.698182C6.872725-1.592727 7.05818-2.585454 7.05818-2.618181Z"/>
<path id="g4-48" d="M5.01818-3.490908C5.01818-4.363635 4.963635-5.236362 4.581817-6.043635C4.079999-7.090907 3.185454-7.265453 2.727272-7.265453C2.072727-7.265453 1.276363-6.981816 .829091-5.967271C.48-5.214544 .425454-4.363635 .425454-3.490908C.425454-2.672727 .469091-1.690909 .916363-.861818C1.385454 .021818 2.181818 .24 2.716363 .24C3.305454 .24 4.134544 .010909 4.614544-1.025454C4.963635-1.778181 5.01818-2.62909 5.01818-3.490908ZM4.112726-3.621817C4.112726-2.803636 4.112726-2.061818 3.992726-1.363636C3.82909-.327273 3.207272 0 2.716363 0C2.290908 0 1.647272-.272727 1.450909-1.32C1.330909-1.974545 1.330909-2.978181 1.330909-3.621817C1.330909-4.319999 1.330909-5.039999 1.418181-5.629089C1.625454-6.927271 2.443636-7.025453 2.716363-7.025453C3.076363-7.025453 3.796363-6.829089 4.003635-5.749089C4.112726-5.13818 4.112726-4.30909 4.112726-3.621817Z"/>
<path id="g5-15" d="M.199253 0C.019925-1.77335-.438356-3.247821-1.185554-4.722291C-1.255293-4.861768-1.315068-5.031133-1.424658-5.140722L-1.484433-5.17061L-1.544209-5.180573C-1.663761-5.17061-1.733499-5.100872-1.743462-4.98132L-1.733499-4.921544C-1.066002-3.606476-.518057-2.161893-.278954-.647572C-.239103-.408468-.229141-.169365-.18929 .059776L-.159402 .119552L-.119552 .159402L-.059776 .18929L0 .199253C.119552 .18929 .18929 .119552 .199253 0Z"/>
<path id="g5-47" d="M0-.199253C-1.77335-.019925-3.247821 .438356-4.722291 1.185554C-4.861768 1.255293-5.031133 1.315068-5.140722 1.424658L-5.17061 1.484433L-5.180573 1.544209C-5.17061 1.663761-5.100872 1.733499-4.98132 1.743462L-4.921544 1.733499C-3.606476 1.066002-2.161893 .518057-.647572 .278954C-.408468 .239103-.169365 .229141 .059776 .18929L.119552 .159402L.159402 .119552L.18929 .059776L.199253 0C.18929-.119552 .119552-.18929 0-.199253Z"/>
<path id="g6-15" d="M1.544209-5.180573L1.484433-5.17061L1.424658-5.140722L1.384807-5.100872C.547945-3.566625 0-1.92279-.199253 0C-.18929 .119552-.119552 .18929 0 .199253L.059776 .18929L.119552 .159402L.159402 .119552L.18929 .059776L.199253 0C.37858-1.733499 .826899-3.16812 1.564134-4.60274C1.62391-4.722291 1.723537-4.83188 1.743462-4.98132C1.733499-5.100872 1.663761-5.17061 1.544209-5.180573Z"/>
<path id="g6-47" d="M-5.180573-1.544209L-5.17061-1.484433L-5.140722-1.424658L-5.100872-1.384807C-3.566625-.547945-1.92279 0 0 .199253C.119552 .18929 .18929 .119552 .199253 0L.18929-.059776L.159402-.119552L.119552-.159402L.059776-.18929L0-.199253C-1.733499-.37858-3.16812-.826899-4.60274-1.564134C-4.722291-1.62391-4.83188-1.723537-4.98132-1.743462C-5.100872-1.733499-5.17061-1.663761-5.180573-1.544209Z"/>
</defs>
<g id="page1">
<use x="174.635203" y="231.362463" xlink:href="#g3-67"/>
<use x="224.353909" y="231.362463" xlink:href="#g3-67"/>
<use x="232.931163" y="227.403645" xlink:href="#g1-3"/>
<use x="237.165346" y="227.403645" xlink:href="#g1-3"/>
<use x="221.365117" y="227.839799" xlink:href="#g6-47"/>
<use x="221.365117" y="227.839799" xlink:href="#g5-47"/>
<rect x="186.201236" y="227.640565" height=".398469" width="35.163881"/>
<use x="174.635203" y="231.362463" xlink:href="#g3-67"/>
<use x="132.834999" y="231.362463" xlink:href="#g4-48"/>
<use x="171.646411" y="227.839799" xlink:href="#g6-47"/>
<use x="171.646411" y="227.839799" xlink:href="#g5-47"/>
<rect x="141.278327" y="227.640565" height=".398469" width="30.368084"/>
<use x="174.635203" y="231.362463" xlink:href="#g3-67"/>
<use x="176.196563" y="274.724027" xlink:href="#g4-48"/>
<use x="178.923823" y="264.865519" xlink:href="#g6-15"/>
<use x="178.923823" y="264.865519" xlink:href="#g5-15"/>
<rect x="178.724589" y="234.351255" height="30.514264" width=".398469"/>
<use x="224.353909" y="231.362463" xlink:href="#g3-67"/>
<use x="232.931163" y="227.403645" xlink:href="#g1-3"/>
<use x="237.165346" y="227.403645" xlink:href="#g1-3"/>
<rect x="283.039113" y="222.313997" height=".398484" width="8.577241"/>
<use x="283.039113" y="231.362463" xlink:href="#g3-67"/>
<use x="280.050321" y="227.839799" xlink:href="#g6-47"/>
<use x="280.050321" y="227.839799" xlink:href="#g5-47"/>
<rect x="244.88644" y="227.640565" height=".398469" width="35.163881"/>
<use x="224.353909" y="231.362463" xlink:href="#g3-67"/>
<use x="232.931163" y="227.403645" xlink:href="#g1-3"/>
<use x="237.165346" y="227.403645" xlink:href="#g1-3"/>
<use x="230.398518" y="274.724027" xlink:href="#g4-48"/>
<use x="233.125778" y="264.865519" xlink:href="#g6-15"/>
<use x="233.125778" y="264.865519" xlink:href="#g5-15"/>
<rect x="232.926544" y="234.351255" height="30.514264" width=".398469"/>
<rect x="283.039113" y="222.313997" height=".398484" width="8.577241"/>
<use x="283.039113" y="231.362463" xlink:href="#g3-67"/>
<use x="284.600473" y="274.724027" xlink:href="#g4-48"/>
<use x="287.327733" y="264.865519" xlink:href="#g6-15"/>
<use x="287.327733" y="264.865519" xlink:href="#g5-15"/>
<rect x="287.128499" y="234.351255" height="30.514264" width=".398469"/>
<rect x="283.039113" y="222.313997" height=".398484" width="8.577241"/>
<use x="283.039113" y="231.362463" xlink:href="#g3-67"/>
<use x="327.962037" y="231.362463" xlink:href="#g4-48"/>
<use x="324.973245" y="227.839799" xlink:href="#g6-47"/>
<use x="324.973245" y="227.839799" xlink:href="#g5-47"/>
<rect x="294.605146" y="227.640565" height=".398469" width="30.368099"/>
<rect x="282.916754" y="168.112042" height=".398484" width="8.821959"/>
<use x="282.916754" y="177.160508" xlink:href="#g3-66"/>
<use x="327.962037" y="177.160508" xlink:href="#g4-48"/>
<use x="324.973245" y="173.637844" xlink:href="#g6-47"/>
<use x="324.973245" y="173.637844" xlink:href="#g5-47"/>
<rect x="294.727505" y="173.43861" height=".398469" width="30.24574"/>
<use x="224.23155" y="177.160508" xlink:href="#g3-66"/>
<use x="233.053523" y="173.20169" xlink:href="#g1-3"/>
<use x="237.287706" y="173.20169" xlink:href="#g1-3"/>
<rect x="282.916754" y="168.112042" height=".398484" width="8.821959"/>
<use x="282.916754" y="177.160508" xlink:href="#g3-66"/>
<use x="279.927962" y="173.637844" xlink:href="#g6-47"/>
<use x="279.927962" y="173.637844" xlink:href="#g5-47"/>
<rect x="245.008799" y="173.43861" height=".398469" width="34.919163"/>
<use x="174.512844" y="177.160508" xlink:href="#g3-66"/>
<use x="224.23155" y="177.160508" xlink:href="#g3-66"/>
<use x="233.053523" y="173.20169" xlink:href="#g1-3"/>
<use x="237.287706" y="173.20169" xlink:href="#g1-3"/>
<use x="221.242758" y="173.637844" xlink:href="#g6-47"/>
<use x="221.242758" y="173.637844" xlink:href="#g5-47"/>
<rect x="186.323595" y="173.43861" height=".398469" width="34.919163"/>
<use x="174.512844" y="177.160508" xlink:href="#g3-66"/>
<use x="132.834999" y="177.160508" xlink:href="#g4-48"/>
<use x="171.524052" y="173.637844" xlink:href="#g6-47"/>
<use x="171.524052" y="173.637844" xlink:href="#g5-47"/>
<rect x="141.278327" y="173.43861" height=".398469" width="30.245725"/>
<use x="174.832917" y="122.958553" xlink:href="#g3-65"/>
<use x="224.551623" y="122.958553" xlink:href="#g3-65"/>
<use x="232.73346" y="118.999735" xlink:href="#g1-3"/>
<use x="236.967643" y="118.999735" xlink:href="#g1-3"/>
<use x="221.562831" y="119.435889" xlink:href="#g6-47"/>
<use x="221.562831" y="119.435889" xlink:href="#g5-47"/>
<rect x="186.003537" y="119.236655" height=".398469" width="35.559295"/>
<use x="174.832917" y="122.958553" xlink:href="#g3-65"/>
<use x="132.834999" y="122.958553" xlink:href="#g4-48"/>
<use x="171.844125" y="119.435889" xlink:href="#g6-47"/>
<use x="171.844125" y="119.435889" xlink:href="#g5-47"/>
<rect x="141.278327" y="119.236655" height=".398469" width="30.565798"/>
<use x="174.832917" y="122.958553" xlink:href="#g3-65"/>
<use x="176.196563" y="79.596989" xlink:href="#g4-48"/>
<use x="178.923823" y="112.515232" xlink:href="#g6-15"/>
<use x="178.923823" y="112.515232" xlink:href="#g5-15"/>
<rect x="178.724589" y="82.585781" height="29.929452" width=".398469"/>
<use x="224.551623" y="122.958553" xlink:href="#g3-65"/>
<use x="232.73346" y="118.999735" xlink:href="#g1-3"/>
<use x="236.967643" y="118.999735" xlink:href="#g1-3"/>
<rect x="283.236827" y="113.910087" height=".398484" width="8.181827"/>
<use x="283.236827" y="122.958553" xlink:href="#g3-65"/>
<use x="280.248035" y="119.435889" xlink:href="#g6-47"/>
<use x="280.248035" y="119.435889" xlink:href="#g5-47"/>
<rect x="244.68874" y="119.236655" height=".398469" width="35.559295"/>
<use x="224.551623" y="122.958553" xlink:href="#g3-65"/>
<use x="232.73346" y="118.999735" xlink:href="#g1-3"/>
<use x="236.967643" y="118.999735" xlink:href="#g1-3"/>
<use x="230.398518" y="79.596989" xlink:href="#g4-48"/>
<use x="233.125778" y="112.30262" xlink:href="#g6-15"/>
<use x="233.125778" y="112.30262" xlink:href="#g5-15"/>
<rect x="232.926544" y="82.585781" height="29.716839" width=".398469"/>
<rect x="283.236827" y="113.910087" height=".398484" width="8.181827"/>
<use x="283.236827" y="122.958553" xlink:href="#g3-65"/>
<use x="284.600473" y="79.596989" xlink:href="#g4-48"/>
<use x="287.327733" y="110.522811" xlink:href="#g6-15"/>
<use x="287.327733" y="110.522811" xlink:href="#g5-15"/>
<rect x="287.128499" y="82.585781" height="27.93703" width=".398469"/>
<rect x="283.236827" y="113.910087" height=".398484" width="8.181827"/>
<use x="283.236827" y="122.958553" xlink:href="#g3-65"/>
<use x="327.962037" y="122.958553" xlink:href="#g4-48"/>
<use x="324.973245" y="119.435889" xlink:href="#g6-47"/>
<use x="324.973245" y="119.435889" xlink:href="#g5-47"/>
<rect x="294.407447" y="119.236655" height=".398469" width="30.565798"/>
<rect x="283.236827" y="113.910087" height=".398484" width="8.181827"/>
<use x="283.236827" y="122.958553" xlink:href="#g3-65"/>
<rect x="282.916754" y="168.112042" height=".398484" width="8.821959"/>
<use x="282.916754" y="177.160508" xlink:href="#g3-66"/>
<rect x="290.316525" y="142.015203" height=".398484" width="5.595746"/>
<use x="290.316525" y="149.055376" xlink:href="#g2-83"/>
<use x="287.327733" y="164.724766" xlink:href="#g6-15"/>
<use x="287.327733" y="164.724766" xlink:href="#g5-15"/>
<rect x="287.128499" y="125.947345" height="38.777421" width=".398469"/>
<use x="224.551623" y="122.958553" xlink:href="#g3-65"/>
<use x="232.73346" y="118.999735" xlink:href="#g1-3"/>
<use x="236.967643" y="118.999735" xlink:href="#g1-3"/>
<use x="224.23155" y="177.160508" xlink:href="#g3-66"/>
<use x="233.053523" y="173.20169" xlink:href="#g1-3"/>
<use x="237.287706" y="173.20169" xlink:href="#g1-3"/>
<use x="226.259848" y="149.022981" xlink:href="#g2-83"/>
<use x="231.855593" y="146.210196" xlink:href="#g0-3"/>
<use x="235.674585" y="146.210196" xlink:href="#g0-3"/>
<rect x="232.926544" y="125.947345" height="15.489081" width=".398469"/>
<use x="233.125778" y="166.504575" xlink:href="#g6-15"/>
<use x="233.125778" y="166.504575" xlink:href="#g5-15"/>
<rect x="232.926544" y="151.015509" height="15.489066" width=".398469"/>
<use x="174.832917" y="122.958553" xlink:href="#g3-65"/>
<use x="174.512844" y="177.160508" xlink:href="#g3-66"/>
<use x="170.339286" y="149.055392" xlink:href="#g2-83"/>
<use x="178.923823" y="166.717187" xlink:href="#g6-15"/>
<use x="178.923823" y="166.717187" xlink:href="#g5-15"/>
<rect x="178.724589" y="125.947345" height="40.769843" width=".398469"/>
<use x="174.512844" y="177.160508" xlink:href="#g3-66"/>
<use x="174.635203" y="231.362463" xlink:href="#g3-67"/>
<use x="169.828673" y="203.257347" xlink:href="#g2-84"/>
<use x="178.923823" y="220.919142" xlink:href="#g6-15"/>
<use x="178.923823" y="220.919142" xlink:href="#g5-15"/>
<rect x="178.724589" y="180.1493" height="40.769843" width=".398469"/>
<use x="224.23155" y="177.160508" xlink:href="#g3-66"/>
<use x="233.053523" y="173.20169" xlink:href="#g1-3"/>
<use x="237.287706" y="173.20169" xlink:href="#g1-3"/>
<use x="224.353909" y="231.362463" xlink:href="#g3-67"/>
<use x="232.931163" y="227.403645" xlink:href="#g1-3"/>
<use x="237.165346" y="227.403645" xlink:href="#g1-3"/>
<use x="226.004534" y="203.224937" xlink:href="#g2-84"/>
<use x="232.110892" y="200.412151" xlink:href="#g0-3"/>
<use x="235.929884" y="200.412151" xlink:href="#g0-3"/>
<rect x="232.926544" y="180.1493" height="15.489081" width=".398469"/>
<use x="233.125778" y="220.70653" xlink:href="#g6-15"/>
<use x="233.125778" y="220.70653" xlink:href="#g5-15"/>
<rect x="232.926544" y="205.217465" height="15.489066" width=".398469"/>
<rect x="282.916754" y="168.112042" height=".398484" width="8.821959"/>
<use x="282.916754" y="177.160508" xlink:href="#g3-66"/>
<rect x="283.039113" y="222.313997" height=".398484" width="8.577241"/>
<use x="283.039113" y="231.362463" xlink:href="#g3-67"/>
<rect x="290.316525" y="196.217158" height=".398484" width="6.106358"/>
<use x="290.316525" y="203.257332" xlink:href="#g2-84"/>
<use x="287.327733" y="218.926721" xlink:href="#g6-15"/>
<use x="287.327733" y="218.926721" xlink:href="#g5-15"/>
<rect x="287.128499" y="180.1493" height="38.777421" width=".398469"/>
</g>
</svg>
